<svg
      id="svg"
      version="1.1"
      xmlns="http://www.w3.org/2000/svg"
      xmlns:xlink="http://www.w3.org/1999/xlink"
      width="400"
      height="103"
      viewBox="0, 0, 400, 103"
    >
      <g>
        <rect
          x="2"
          y="2"
          width="100"
          height="100"
          rx="8"
          ry="8"
          stroke="none"
          fill="#ffffff"
          fill-rule="evenodd"
        />
        <path
          fill="#888"
          fill-rule="evenodd"
          d="M44.014 28.084L43.148 27.906L42.551 27.456L42.698 26.612L43.417 25.531L44.639 24.869L46.136 24.331L48.407 23.759L49.692 22.769L50.857 21.325L51.667 21.806L51.667 21.503L51.007 20.903L51.098 19.791L51.098 15.734L52.414 14.716L54.148 14.384L55.642 14.144L56.598 13.691L56.986 14.475L57.104 14.925L56.898 15.253L56.898 15.769L57.076 16.094L57.498 16.094L57.792 16.425L57.886 16.759L58.123 17.056L58.482 17.056L58.842 16.609L59.586 16.369L59.973 16.334L60.036 16.697L60.214 16.697L60.248 16.878L60.514 17L60.545 18.2L60.664 18.591L61.082 18.653L61.289 18.859L61.889 18.591L62.098 18.831L62.457 18.772L62.936 19.341L62.907 20.394L63.117 20.394L63.295 20.094L64.967 20.003L65.923 20.753L66.045 20.994L65.595 21.325L65.595 21.744L65.445 21.897L66.017 22.047L66.107 22.619L65.507 22.978L65.536 23.278L66.761 23.278L67.182 23.609L67.542 23.459L68.195 23.25L68.554 23.009L68.554 22.378L68.823 22.103L69.123 21.656L69.573 21.656L69.695 21.744L69.695 22.287L69.364 22.584L69.573 22.769L69.454 23.066L69.364 23.397L69.842 23.7L69.842 23.969L69.723 24.091L69.779 24.781L70.736 24.903L71.007 25.081L71.157 25.469L71.995 25.562L72.232 25.744L72.354 26.344L72.739 26.403L72.979 26.644L73.098 27.216L73.279 27.216L73.457 27.031L73.964 27.003L74.323 26.672L75.014 26.672L75.551 27.272L76.032 27.272L76.207 27.456L76.714 27.456L76.804 27.306L77.164 27.003L77.614 26.975L78.029 27.334L78.332 27.334L78.423 27.272L78.72 27.272L79.345 27.575L79.648 27.875L79.676 28.594L80.098 28.778L80.098 29.197L80.273 29.259L80.576 29.831L81.082 29.769L81.111 29.406L81.532 29.228C81.564 29.25 81.836 29.406 81.976 29.406C81.979 29.406 81.986 29.406 81.992 29.406C81.992 29.406 81.995 29.406 81.995 29.406C81.998 29.409 82.004 29.412 82.004 29.412C82.007 29.412 82.014 29.416 82.02 29.416C82.026 29.419 82.032 29.425 82.039 29.425C82.167 29.5 82.314 29.759 82.336 29.797L82.636 30.009L83.651 29.978L84.07 29.591L84.789 29.528L84.998 29.859L85.598 30.219L85.801 30.519L85.864 30.5L86.436 30.341L86.761 30.341L86.998 30.609L87.448 30.341L88.107 30.672L88.854 30.759L89.27 31.091L88.854 31.181L88.586 31.903L88.645 32.412L88.376 32.681L88.136 32.681L87.836 33.075L87.836 33.437L87.061 34.003L86.97 35.028L86.611 36.2L86.701 37.072L85.923 38.603L85.954 39.566L86.251 39.984L85.986 40.375L85.986 40.975L85.836 41.334L85.836 42.091L85.598 42.416L85.801 42.897L86.195 43.35L85.895 43.737L85.864 44.403L85.295 44.853L84.192 44.884L83.979 44.7L84.042 44.375L83.292 44.494L82.517 45.394L82.545 45.512L83.264 45.362L83.473 45.575L83.086 46.056L82.757 46.206L82.904 46.566L81.948 47.675L81.532 47.887L81.498 48.459L81.082 48.85L80.632 49.062L79.976 49.387L80.036 50.831L78.182 52.575L78.151 52.787L78.451 52.906L78.001 53.447L77.945 54.075L78.507 54.378L78.57 54.556L78.12 55.128L78.304 55.25L78.27 55.55L77.732 55.609L77.376 55.822L77.376 56.394L78.361 56.394L78.748 56.031L79.345 55.637L79.02 55.369L78.986 55.1L79.289 54.437L79.617 54.406L79.795 54.675L80.454 54.137L81.139 54.019L82.157 54.019L82.186 54.406L82.726 54.978L82.726 55.397L82.398 55.759L82.426 56L82.995 56.272L82.995 56.994L83.204 56.875L83.861 57.562L83.923 58.225L83.804 58.522L82.786 58.947L82.77 59.469L82.757 59.966L83.204 60.478C83.204 60.478 83.651 60.447 83.77 60.416C83.77 60.416 83.773 60.416 83.776 60.416C83.776 60.416 83.779 60.416 83.779 60.416C83.779 60.416 83.782 60.416 83.786 60.416C83.786 60.416 83.786 60.422 83.786 60.422C83.786 60.422 83.789 60.422 83.789 60.422C83.789 60.422 83.792 60.425 83.795 60.425C83.795 60.428 83.801 60.437 83.804 60.441C83.879 60.606 83.832 61.528 83.832 61.528L84.642 62.009L84.761 62.431L85.148 62.581L84.726 63.3L84.879 63.541L84.789 64.05L84.011 64.353L83.861 64.531L83.473 64.744L83.445 65.103L83.114 65.103L82.786 64.894L81.889 65.253L81.901 65.272L82.095 65.706L82.248 66.009L82.695 66.156L82.814 67.056L83.592 67.45L84.011 67.387L84.339 67.509L84.429 68.378L84.845 68.591L84.845 68.859L84.52 68.831L84.164 69.219L84.248 69.644L83.714 70.216L83.592 70.484L83.742 70.875L84.042 70.966L84.282 71.175L83.861 71.234L83.861 71.834L84.489 72.225L84.489 72.769L84.936 72.769L85.717 72.978L86.492 73.609L86.942 73.609L88.348 73.1L88.792 73.066L88.911 73.459L89.064 73.728L89.151 74.181L88.973 74.841L88.314 75.05L88.404 75.503L87.954 75.894L88.257 76.584L87.717 76.912L87.689 77.244L87.151 77.244L86.554 77.787L85.864 77.844L85.836 78.778L85.536 78.716L85.323 78.987L84.726 78.869L84.698 79.556L84.192 80.128L83.326 80.25L83.264 80.728L83.023 81.062L82.545 81.359L83.173 81.331L83.173 82.112L82.695 82.322L82.276 82.2L82.095 82.475L81.47 82.475L81.229 82.681L81.173 83.075L80.964 83.225L80.814 83.041L80.632 82.984L80.182 82.834L79.795 83.103L79.857 83.494L80.036 83.675L79.317 83.644L79.617 83.494L79.648 83.253L78.72 83.162L78.182 83.494L77.882 83.706L77.551 83.644L77.404 83.041L76.867 82.8L76.714 82.594L75.998 82.353L74.532 82.353L74.717 82.144L74.836 81.841L74.176 81.812L74.654 81.394L74.564 81.119L74.117 81.3L72.411 81.272L72.142 80.7L71.573 80.459L71.214 80.759L71.754 81.272L70.736 81.45L69.454 81.181L69.751 80.672L70.201 80.672L69.961 80.431L68.704 80.341L67.757 80.297L67.389 80.278L66.704 80.312L66.704 79.709L66.245 79.675L65.832 79.647L64.82 80.369L63.204 81.662L62.936 81.994L62.098 82.022L61.979 82.291L60.901 82.625L60.882 82.787L60.845 83.103L60.545 83.403L60.095 83.762L59.586 83.281L59.348 83.675L59.648 84.125L60.007 84.094L59.973 85.084L59.998 85.947L60.064 88.572L60.486 88.753L60.726 89.084L60.726 89.566L60.248 89.531L59.854 89.112L59.229 89.112L58.779 89.262L58.482 89.653L57.582 89.862L57.554 90.287L57.376 90.375L57.167 90.225L56.957 90.225L56.717 90.528L55.879 89.806L54.895 89.475L54.267 89.594L53.757 90.225L53.398 90.287L52.92 89.862L52.892 89.325L51.995 89.084L51.548 88.662L51.495 88.344L51.398 87.791L50.082 87.609L49.632 87.791L49.126 86.978L47.839 87.041L47.332 86.378L46.942 86.378L46.017 86.2L45.854 86.109L45.239 85.75L44.823 85.687L44.761 87.162L43.545 87.081L42.967 87.041L42.698 86.922L42.489 87.281L41.917 87.128L41.501 86.647L40.517 87.072L40.126 87.072L39.645 86.681L39.589 86.322L38.992 85.869L38.486 85.566L38.407 85.609L37.886 85.897L37.614 86.047L37.467 85.897L37.17 85.959L36.839 86.137L36.539 85.778L35.764 85.175L35.701 84.547L34.567 84.547L33.879 84.125L33.161 84.003L32.92 83.675L32.386 83.675L32.176 83.375L32.204 82.984L31.936 83.281L31.845 83.734L31.367 83.584L31.098 83.281L31.129 83.012L31.548 82.8L31.548 82.234L31.754 82.05L31.667 81.691L31.311 81.6L30.742 81.359L30.62 81.634L30.201 81.6L30.17 81.209L29.636 81.181L29.276 80.85L29.276 80.519L29.664 80.459L30.201 80.25L30.889 79.406L31.014 79.187L31.457 78.416L31.636 77.697L31.845 76.672L32.536 74.028L33.067 71.156L33.07 70.456L33.401 70.003L33.461 69.55L33.757 69.431L33.879 69.612L34.623 69.581L34.448 69.341L34.386 69.162L33.789 68.619L33.37 69.162L33.161 69.853L33.189 69.341L33.461 67.359L33.848 64.806L33.998 62.281L34.476 61.562L34.776 61.591L34.745 62.219L36.27 63.603L36.692 65.253L36.839 65.975L36.986 65.734L36.929 64.862L36.72 63.994L36.676 63.8L36.451 62.762L35.495 61.8L35.164 61.737L35.136 61.441L34.714 61.2L34.089 60.687L33.729 60.719L33.667 60.056L33.548 59.397L33.492 58.825L32.801 58.316L32.864 57.262L33.279 57.772L33.789 57.834L33.848 58.556L33.998 58.675L34.089 58.884L33.82 59.244L33.879 59.484L34.298 59.484L34.207 59.334L34.179 58.916L34.539 58.947L34.686 58.281L34.42 57.894L34.539 57.716L34.898 57.772L34.926 57.441L34.657 57.322L34.504 56.903L34.089 56.812L33.97 56.541L33.342 56.572L33.014 56.3L32.592 56.031L32.176 56.031L31.845 55.55L32.351 55.369L32.711 55.609L32.773 55.912L33.37 55.969L33.611 56.237L34.061 56.181L34.117 55.878L34.595 55.487L34.376 55.287L34.207 55.128L34.179 55.55L33.52 55.219L33.223 54.769L32.564 54.769L32.295 54.166L31.607 54.166L31.007 53.566L30.411 53.269L29.842 51.55L29.573 51.55L29.601 51.281L28.679 50.384L28.707 49.662L29.617 48.484L28.854 47.737L28.201 47.859L28.139 47.406L28.498 47.406L28.826 47.075L28.707 46.806L28.679 46.503L29.214 46.234L28.707 46.234L28.32 46.656L27.779 46.656L27.451 46.234L27.392 46.475L26.823 46.353L26.492 46.175L26.795 45.753L26.676 45.512L26.554 45.394L27.123 44.884L26.942 44.756L26.886 44.459L27.092 44.281L26.676 44.191L25.057 44.341L24.792 43.922L24.432 43.8L24.67 43.5L25.12 43.709L25.507 43.831L25.657 43.591L25.361 43.228L24.973 43.137L25.057 43.35L24.642 43.412L24.311 42.959L24.495 43.378L24.311 43.681L23.923 43.35L23.832 43.137L23.714 43.5L23.354 43.412L23.354 43.95L23.539 44.191L23.354 44.403L22.998 44.134L23.057 43.737L23.117 43.35L22.939 43.019L22.398 42.478L21.982 42.297L22.07 41.969L21.892 42.237L21.414 42.119L21.067 41.562L20.667 41.547L20.154 41.456L19.951 41.156L19.917 41.334L19.079 41.278L18.692 40.647L18.573 40.134L18.573 40.647L18.276 40.706L17.798 40.437L17.526 40.466L17.257 40.344L17.526 40.706L17.376 40.975L16.689 41.009L16.061 40.887L16.273 40.466L16.123 39.687L15.492 38.966L15.104 38.994L14.836 38.753L14.507 38.781L14.211 38.603L14.417 38.331L15.436 38.272L16.032 38.181L16.392 38.181L16.779 38.209L16.961 37.884L16.842 37.403L16.539 37.341L15.914 36.978L15.582 37.487L15.436 37.609L15.464 36.8L14.926 36.619L15.345 36.137L16.032 36.469L16.601 36.619L17.32 36.647L17.348 36.469L16.689 36.441L16.807 36.019L16.211 36.287L16.151 35.987L16.807 35.359L16.061 35.897L14.926 36.047L14.836 35.925L14.654 36.109L14.176 36.047L14.295 35.387L14.148 35.119L14.626 34.725L14.267 34.456L14.689 33.947L15.492 33.916L15.554 33.556L15.795 33.437L16.004 33.584L16.482 33.556L16.482 33.344L17.167 33.253L17.229 33.584L17.617 33.494L17.736 33.197L18.395 33.134L18.754 33.281L19.079 32.922L19.142 33.612L19.501 33.556L19.557 33.825L19.798 33.825L19.798 33.225L20.632 33.197L21.136 33.487L21.561 32.922L21.323 32.594L21.948 32.172L22.426 32.531L22.579 32.322L23.264 32.234L23.539 32.022L23.714 32.441L23.804 32.144L24.404 32.144L24.373 32.475L24.698 32.503L24.67 32.984L25.092 33.075L25.092 33.584L25.657 34.003L25.598 34.547L26.226 34.844L26.226 35.387L26.464 35.387L26.464 35.084L27.57 34.484L27.751 34.125L28.286 34.216L28.645 33.947L28.645 34.547L28.854 34.306L29.157 34.397L29.186 34.816L29.545 34.787L29.601 34.456L30.17 34.519L30.364 34.3L30.648 33.975L31.367 34.003L31.007 34.484L31.548 34.816L33.582 34.816L33.907 34.666L33.848 34.362L33.189 34.216L32.773 33.134L33.161 32.353L33.161 31.512L32.801 30.791L32.801 29.709L32.654 29.5L32.504 28.806L31.817 28.028L31.607 27.547L31.667 26.975L31.576 26.912L31.429 26.762L31.667 26.466L31.667 25.8L31.036 25.291L31.157 24.987L32.267 25.322L33.042 25.831L33.729 25.35L35.017 25.412L35.314 26.225L34.982 26.225L34.745 26.825L35.523 27.753L35.551 28.475L35.836 28.403L36.72 28.175L37.289 28.475L39.739 28.834L40.757 29.406L42.039 28.897L43.176 28.234L43.873 28.109"
        />
        <path
          d="M8.579 0.226 C 8.398 0.351,7.950 0.547,7.583 0.663 C 4.305 1.699,1.893 4.190,0.881 7.583 C 0.433 9.087,0.321 92.579,0.765 94.833 C 1.464 98.386,3.909 101.220,7.167 102.252 C 7.671 102.412,8.202 102.646,8.346 102.771 C 8.741 103.114,391.259 103.114,391.654 102.771 C 391.798 102.646,392.356 102.388,392.893 102.198 C 396.061 101.078,398.653 98.095,399.157 94.991 C 399.363 93.715,399.388 10.709,399.182 8.558 C 398.861 5.201,396.596 2.421,392.922 0.875 C 392.186 0.566,391.512 0.242,391.425 0.156 C 391.146 -0.119,8.979 -0.049,8.579 0.226 M91.909 4.602 C 99.258 4.717,99.408 4.727,99.757 5.075 C 100.306 5.624,100.417 13.453,100.417 51.833 C 100.417 83.876,100.285 97.766,99.975 98.369 C 99.641 99.019,99.865 99.016,53.750 98.966 L 8.917 98.917 7.860 98.250 C 6.011 97.083,5.268 96.423,4.750 95.487 L 4.250 94.583 4.250 51.333 L 4.250 8.083 4.694 7.250 C 5.315 6.084,6.306 5.181,7.354 4.826 C 8.310 4.503,74.390 4.328,91.909 4.602 M391.842 5.101 C 393.423 5.833,394.524 7.210,394.940 8.975 C 395.269 10.373,395.269 93.016,394.941 94.250 C 394.536 95.770,392.640 98.295,391.536 98.784 C 390.937 99.050,106.425 99.093,105.469 98.828 C 105.131 98.734,104.662 98.428,104.427 98.149 L 104.000 97.641 104.000 51.600 L 104.000 5.558 104.375 5.208 C 104.932 4.689,95.994 4.718,248.500 4.735 L 391.083 4.750 391.842 5.101 "
          stroke="none"
          fill="#efb300"
          fill-rule="evenodd"
        ></path>
        <path
          d="M105.333 4.789 C 105.013 4.827,104.581 5.016,104.375 5.208 L 104.000 5.558 104.000 51.600 L 104.000 97.641 104.427 98.149 C 104.662 98.428,105.131 98.734,105.469 98.828 C 106.425 99.093,390.937 99.050,391.536 98.784 C 392.640 98.295,394.536 95.770,394.941 94.250 C 395.269 93.016,395.269 10.373,394.940 8.975 C 394.524 7.210,393.423 5.833,391.842 5.101 L 391.083 4.750 248.500 4.735 C 170.079 4.726,105.654 4.750,105.333 4.789 "
          stroke="none"
          fill="#1414bb"
          fill-rule="evenodd"
        ></path>
      </g>
    </svg>