<?xml version="1.0" encoding="UTF-8" standalone="no"?>
<svg xmlns:dc="http://purl.org/dc/elements/1.1/" xmlns:cc="http://creativecommons.org/ns#"
  xmlns:rdf="http://www.w3.org/1999/02/22-rdf-syntax-ns#" xmlns:svg="http://www.w3.org/2000/svg"
  xmlns="http://www.w3.org/2000/svg" viewBox="0 0 421.01364 232.01756" height="232.01756" width="421.01364"
  xml:space="preserve" id="svg10157" version="1.1">
  <g transform="matrix(1.3333333,0,0,-1.3333333,0,232.01756)" id="g10165">
    <g id="g10167">
      <g transform="translate(0,-0.986832)" id="g10169">
        <g id="g10171">
          <g clip-path="url(#clipPath10177)" id="g10173">
            <g id="g10179">
              <path id="path10181" style="fill:#ffffff;fill-opacity:1;fill-rule:evenodd;stroke:none"
                d="M 21.375,1.367 C 9.781,1.367 0.379,10.77 0.379,22.363 v 131.258 c 0,11.594 9.402,21.004 20.996,21.004 h 273.008 c 11.597,0 20.996,-9.41 20.996,-21.004 V 22.363 c 0,-11.593 -9.399,-20.996 -20.996,-20.996 z" />
              <path id="path10183" style="fill:#000000;fill-opacity:1;fill-rule:evenodd;stroke:none"
                d="M 21.375,175 C 9.578,175 0,165.422 0,153.625 V 22.363 C 0,10.563 9.578,0.988 21.375,0.988 h 273.008 c 11.801,0 21.379,9.575 21.379,21.375 v 131.262 c 0,11.797 -9.578,21.375 -21.379,21.375 z m 0,-0.375 h 273.008 c 11.597,0 20.996,-9.41 20.996,-21.004 V 22.363 C 315.379,10.77 305.98,1.371 294.383,1.371 H 21.375 C 9.781,1.371 0.379,10.77 0.379,22.363 v 131.258 c 0,11.594 9.402,21.004 20.996,21.004 z" />
            </g>
          </g>
        </g>
      </g>
      <g transform="translate(0,-0.986832)" id="g10185">
        <g id="g10187">
          <g clip-path="url(#clipPath10193)" id="g10189">
            <g id="g10195">
              <path id="path10197" style="fill:#000000;fill-opacity:1;fill-rule:evenodd;stroke:none"
                d="m 21.375,6.617 c -8.699,0 -15.746,7.055 -15.746,15.746 v 131.258 c 0,8.699 7.047,15.754 15.746,15.754 h 273.008 c 8.695,0 15.75,-7.055 15.75,-15.754 V 22.363 c 0,-8.691 -7.055,-15.746 -15.75,-15.746 z" />
              <path id="path10199" style="fill:#ffffff;fill-opacity:1;fill-rule:evenodd;stroke:none"
                d="m 21.375,14.492 c -4.344,0 -7.871,3.528 -7.871,7.875 v 131.254 c 0,4.348 3.527,7.875 7.871,7.875 h 273.008 c 4.347,0 7.875,-3.527 7.875,-7.875 V 22.367 c 0,-4.347 -3.528,-7.875 -7.875,-7.875 z" />
            </g>
          </g>
        </g>
      </g>
    </g>
  </g>
</svg>