<svg xmlns:dc="http://purl.org/dc/elements/1.1/" xmlns:cc="http://creativecommons.org/ns#" xmlns:rdf="http://www.w3.org/1999/02/22-rdf-syntax-ns#" xmlns:svg="http://www.w3.org/2000/svg" xmlns="http://www.w3.org/2000/svg" xmlns:sodipodi="http://sodipodi.sourceforge.net/DTD/sodipodi-0.dtd" xmlns:inkscape="http://www.inkscape.org/namespaces/inkscape" width="450.00034" height="599.99957" id="svg8905" sodipodi:version="0.32" inkscape:version="0.92.1 r15371" version="1.0" sodipodi:docname="TCH-1_(BC).svg">
  <defs id="defs8907"/>
  <sodipodi:namedview id="base" pagecolor="#ffffff" bordercolor="#666666" borderopacity="1.0" inkscape:pageopacity="0.0" inkscape:pageshadow="2" inkscape:zoom="1.0550033" inkscape:cx="385.89327" inkscape:cy="266.44191" inkscape:document-units="px" inkscape:current-layer="g8964" inkscape:window-width="1600" inkscape:window-height="847" inkscape:window-x="-8" inkscape:window-y="-8" showgrid="false" fit-margin-top="0" fit-margin-left="0" fit-margin-right="0" fit-margin-bottom="0" inkscape:window-maximized="1"/>
  <metadata id="metadata8910">
    <rdf:RDF>
      <cc:Work rdf:about="">
        <dc:format>image/svg+xml</dc:format>
        <dc:type rdf:resource="http://purl.org/dc/dcmitype/StillImage"/>
        <dc:title/>
      </cc:Work>
    </rdf:RDF>
  </metadata>
  <g inkscape:label="Layer 1" inkscape:groupmode="layer" id="layer1" transform="translate(-176.00005,-200.00044)">
    <g id="g8964" transform="matrix(1.872279,0,0,1.872279,-371.5868,-426.3682)">
      <path style="fill:#fffeff;fill-rule:evenodd;stroke:none;stroke-width:0.13061474;stroke-linecap:butt;stroke-linejoin:bevel" d="m 293.2459,638.03581 c 0,8.91145 6.82297,16.20263 15.16216,16.20263 h 208.4798 c 8.33919,0 15.16217,-7.29118 15.16217,-16.20263 V 351.51928 c 0,-9.04647 -6.82298,-16.20264 -15.16217,-16.20264 h -208.4798 c -8.33919,0 -15.16216,7.15617 -15.16216,16.20264 z" id="path8374" inkscape:connector-curvature="0"/>
      <path style="fill:none;fill-rule:evenodd;stroke:#221f1f;stroke-width:1.55027628;stroke-linecap:butt;stroke-linejoin:miter;stroke-miterlimit:4;stroke-dasharray:none" d="m 293.24589,638.03619 c 0,8.91124 6.82282,16.20226 15.16182,16.20226 h 208.47506 c 8.339,0 15.16182,-7.29102 15.16182,-16.20226 V 351.52617 c 0,-9.04627 -6.82282,-16.20226 -15.16182,-16.20226 H 308.40771 c -8.339,0 -15.16182,7.15599 -15.16182,16.20226 v 286.51002" id="path8376" inkscape:connector-curvature="0"/>
      <path style="fill:#007769;fill-opacity:1;fill-rule:evenodd;stroke:none;stroke-width:0.13061474;stroke-linecap:butt;stroke-linejoin:bevel" d="m 526.11151,393.64612 v 244.38969 c 0,5.40088 -4.16959,9.8566 -9.22365,9.8566 h -208.4798 c -5.05405,0 -9.0973,-4.45572 -9.0973,-9.8566 V 393.64612 Z" id="path8378" inkscape:connector-curvature="0"/>
      <path style="fill:#007769;fill-opacity:1;fill-rule:evenodd;stroke:none;stroke-width:0.13061474;stroke-linecap:butt;stroke-linejoin:bevel" d="M 526.11151,369.61221 H 299.31076 v -18.09293 c 0,-5.5359 4.04325,-9.8566 9.0973,-9.8566 h 208.4798 c 5.05406,0 9.22365,4.3207 9.22365,9.8566 z" id="path8380" inkscape:connector-curvature="0"/>
      <g id="g415" transform="matrix(0.5625,0,0,0.5625,485.32108,302.4159)" style="fill:#007769;fill-opacity:1">
        <path id="path379" d="m -102.88614,155.42157 c -0.225,0 -0.45,-0.45 -0.225,-0.675 l 12.375004,-28.8 c 0.225,0 0.225,-0.225 0.45,-0.225 h 4.05 c 0.225,0 0.225,0.225 0.45,0.225 l 11.25,28.8 c 0.225,0.45 0,0.675 -0.225,0.675 h -4.275 c -0.225,0 -0.45,-0.225 -0.45,-0.225 l -2.7,-7.2 c 0,-0.225 -0.225,-0.225 -0.45,-0.225 h -12.6 c 0,0 -0.225,0 -0.225,0.225 l -3.15,7.2 c 0,0 0,0.225 -0.225,0.225 z" style="fill:#007769;fill-opacity:1;fill-rule:evenodd;stroke:none;stroke-width:0.22500001;stroke-linecap:butt;stroke-linejoin:bevel" inkscape:connector-curvature="0"/>
        <path id="path381" d="m -43.711136,155.42157 c -0.225,0 -0.45,-0.45 -0.225,-0.675 l 12.6,-28.8 c 0,0 0,-0.225 0.225,-0.225 h 4.05 c 0.225,0 0.45,0.225 0.45,0.225 l 11.25,28.8 c 0.225,0.45 0,0.675 -0.225,0.675 h -4.275 c -0.225,0 -0.225,-0.225 -0.225,-0.225 l -2.925,-7.2 c 0,-0.225 -0.225,-0.225 -0.225,-0.225 h -12.6 c -0.225,0 -0.45,0 -0.45,0.225 l -2.925,7.2 c -0.225,0 -0.225,0.225 -0.45,0.225 z" style="fill:#007769;fill-opacity:1;fill-rule:evenodd;stroke:none;stroke-width:0.22500001;stroke-linecap:butt;stroke-linejoin:bevel" inkscape:connector-curvature="0"/>
        <path id="path383" d="m 13.663864,155.42157 c -0.45,0 -0.45,-0.45 -0.45,-0.675 l 12.6,-28.8 c 0,0 0.225,-0.225 0.225,-0.225 h 4.275 c 0,0 0.225,0.225 0.225,0.225 l 11.475,28.8 c 0,0.45 -0.225,0.675 -0.45,0.675 h -4.275 c 0,0 -0.225,-0.225 -0.225,-0.225 l -2.925,-7.2 c 0,-0.225 0,-0.225 -0.225,-0.225 h -12.6 c -0.225,0 -0.225,0 -0.45,0.225 l -2.925,7.2 c 0,0 -0.225,0.225 -0.225,0.225 z" style="fill:#007769;fill-opacity:1;fill-rule:evenodd;stroke:none;stroke-width:0.22500001;stroke-linecap:butt;stroke-linejoin:bevel" inkscape:connector-curvature="0"/>
        <path id="path385" d="m -242.16114,155.42157 c -0.225,0 -0.45,-0.45 -0.225,-0.675 l 12.6,-28.8 c 0,0 0,-0.225 0.225,-0.225 h 4.275 c 0,0 0.225,0.225 0.225,0.225 l 11.475,28.8 c 0,0.45 -0.225,0.675 -0.45,0.675 h -4.275 c -0.225,0 -0.225,-0.225 -0.225,-0.225 l -2.925,-7.2 c 0,-0.225 -0.225,-0.225 -0.225,-0.225 h -12.6 c -0.225,0 -0.225,0 -0.45,0.225 l -2.925,7.2 c 0,0 -0.225,0.225 -0.45,0.225 z" style="fill:#007769;fill-opacity:1;fill-rule:evenodd;stroke:none;stroke-width:0.22500001;stroke-linecap:butt;stroke-linejoin:bevel" inkscape:connector-curvature="0"/>
        <path id="path387" d="m -286.03614,155.42157 c 0,0 -0.225,-0.225 -0.225,-0.45 v -24.75 c 0,-0.225 -0.225,-0.225 -0.45,-0.225 h -9 c -0.225,0 -0.45,-0.225 -0.45,-0.45 v -3.375 c 0,-0.225 0.225,-0.45 0.45,-0.45 h 23.625 c 0.225,0 0.225,0.225 0.225,0.45 v 3.375 c 0,0.225 0,0.225 -0.225,0.225 h -9.225 c -0.225,0 -0.225,0.225 -0.225,0.45 v 24.75 c 0,0.225 -0.225,0.45 -0.45,0.45 z" style="fill:#007769;fill-opacity:1;fill-rule:evenodd;stroke:none;stroke-width:0.22500001;stroke-linecap:butt;stroke-linejoin:bevel" inkscape:connector-curvature="0"/>
        <path id="path389" d="m -11.311136,155.42157 c -0.225,0 -0.225,-0.225 -0.225,-0.45 v -28.8 c 0,-0.225 0,-0.45 0.225,-0.45 l 11.70000015,0.225 c 0,0 0,0 0,0 7.20000005,0.45 10.12499985,5.4 11.24999985,10.125 0.45,1.575 0.675,3.15 0.675,4.5 0,4.725 -1.8,8.55 -3.8249998,10.8 -1.8,2.25 -4.95,3.825 -8.32500005,3.825 z" style="fill:#007769;fill-opacity:1;fill-rule:evenodd;stroke:none;stroke-width:0.22500001;stroke-linecap:butt;stroke-linejoin:bevel" inkscape:connector-curvature="0"/>
        <path id="path391" d="m -110.31114,147.09657 h 4.275 c 0.225,0 0.45,0.225 0.45,0.45 -0.45,2.7 -2.025,5.175 -4.275,6.75 -1.8,1.125 -4.05,2.025 -6.75,2.025 -3.375,0 -6.525,-1.35 -8.55,-3.15 -2.25,-2.25 -4.05,-5.625 -4.05,-12.375 0,-4.275 0.45,-6.525 1.125,-8.325 2.025,-4.725 6.3,-7.65 11.25,-7.65 7.425,0 11.025,4.275 11.25,8.775 0,0.225 -0.225,0.45 -0.45,0.45 h -4.05 c -0.225,0 -0.45,-0.225 -0.45,-0.45 -0.225,-2.25 -2.475,-4.725 -6.075,-4.725 -2.7,0 -5.175,1.575 -6.525,4.275 -0.675,1.35 -1.35,3.6 -1.35,8.1 0,2.7 0.675,5.175 1.575,6.75 1.125,2.7 3.375,4.05 6.525,4.05 2.7,0 4.5,-1.35 5.4,-3.825 l 0.225,-0.45 c 0,0 -0.225,0 -0.225,0 v -0.225 c 0,0 0,0 0.225,-0.225 0,-0.225 0.225,-0.225 0.45,-0.225 z" style="fill:#007769;fill-opacity:1;fill-rule:evenodd;stroke:none;stroke-width:0.22500001;stroke-linecap:butt;stroke-linejoin:bevel" inkscape:connector-curvature="0"/>
        <path id="path393" d="m -70.486136,155.42157 c -0.225,0 -0.45,-0.225 -0.45,-0.45 v -28.8 c 0,-0.225 0.225,-0.45 0.45,-0.45 h 5.625 c 0,0 0,0.225 0.225,0.225 0,0 0,0 0,0 0,0 0,0 0,0 l 12.375,22.5 c 0.225,0.45 0.675,0.225 0.675,0 l -0.45,-22.275 c 0,-0.225 0.225,-0.45 0.45,-0.45 h 3.6 c 0.225,0 0.45,0.225 0.45,0.45 v 28.8 c 0,0.225 -0.225,0.45 -0.45,0.45 h -4.95 c 0,0 0,0 0,-0.225 -0.225,0 -0.225,0 -0.225,0 0,0 0,0 0,0 l -12.825,-23.175 c -0.225,-0.45 -0.675,-0.225 -0.675,0 l 0.225,22.95 c 0,0.225 -0.225,0.45 -0.45,0.45 z" style="fill:#007769;fill-opacity:1;fill-rule:evenodd;stroke:none;stroke-width:0.22500001;stroke-linecap:butt;stroke-linejoin:bevel" inkscape:connector-curvature="0"/>
        <path id="path395" d="m -209.76114,155.42157 c -0.225,0 -0.225,-0.225 -0.225,-0.45 v -28.8 c 0,-0.225 0,-0.45 0.225,-0.45 h 5.625 c 0,0 0.225,0.225 0.225,0.225 0,0 0,0 0,0 0.225,0 0.225,0 0.225,0 l 12.15,22.5 c 0.225,0.45 0.675,0.225 0.675,0 l -0.225,-22.275 c 0,-0.225 0,-0.45 0.225,-0.45 h 3.6 c 0.225,0 0.45,0.225 0.45,0.45 v 28.8 c 0,0.225 -0.225,0.45 -0.45,0.45 h -4.725 c -0.225,0 -0.225,0 -0.225,-0.225 0,0 0,0 -0.225,0 0,0 0,0 0,0 l -12.825,-23.175 c 0,-0.45 -0.675,-0.225 -0.675,0 l 0.225,22.95 c 0,0.225 -0.225,0.45 -0.225,0.45 z" style="fill:#007769;fill-opacity:1;fill-rule:evenodd;stroke:none;stroke-width:0.22500001;stroke-linecap:butt;stroke-linejoin:bevel" inkscape:connector-curvature="0"/>
        <path id="path397" d="m -179.38614,146.42157 h 4.05 c 0.225,0 0.45,0.225 0.45,0.45 0,1.575 0.45,2.475 1.125,3.375 1.125,0.9 2.925,1.8 5.4,1.8 4.95,0 6.525,-2.475 6.525,-4.725 0,-1.8 -0.9,-3.375 -3.6,-4.05 l -8.1,-2.025 c -3.825,-0.9 -5.625,-3.6 -5.625,-7.425 0,-2.25 0.9,-4.05 2.025,-5.4 1.8,-2.025 4.95,-3.375 9.225,-3.375 6.75,0 9.9,3.6 10.125,8.1 0,0 0,0.225 -0.225,0.225 h -4.275 c -0.225,0 -0.45,-0.225 -0.45,-0.225 0,-2.25 -1.35,-4.05 -5.4,-4.05 -4.5,0 -6.3,2.25 -6.3,4.5 0,1.575 0.45,2.925 4.05,3.825 l 5.85,1.35 c 4.275,0.9 7.425,3.15 7.425,8.325 0,4.725 -3.6,9 -11.7,9 -7.875,0 -10.125,-4.275 -10.8,-6.75 -0.225,-0.9 -0.225,-1.35 -0.225,-1.575 0,0 0,0 0,0 v -0.45 c 0,0 0,0 0,-0.225 0,0 0,0 0,-0.225 0,0 0,0 0,0 0,-0.225 0,-0.45 0.45,-0.45 z" style="fill:#007769;fill-opacity:1;fill-rule:evenodd;stroke:none;stroke-width:0.22500001;stroke-linecap:butt;stroke-linejoin:bevel" inkscape:connector-curvature="0"/>
        <path id="path399" d="m -267.81114,155.42157 c -0.225,0 -0.45,-0.225 -0.45,-0.45 v -28.8 c 0,-0.225 0.225,-0.225 0.45,-0.225 l 11.475,-0.225 v 0 c 4.5,0 5.85,1.125 7.2,2.25 1.35,1.125 2.25,3.375 2.25,5.85 0,3.15 -1.35,5.625 -3.825,6.525 -0.225,0.225 -0.225,0.675 0,0.675 1.125,0.9 2.025,2.025 2.475,3.825 l 1.35,8.325 c 0,0.45 0.225,1.125 0.675,1.575 0.225,0.225 0.225,0.675 -0.225,0.675 h -4.5 c 0,0 -0.225,-0.225 -0.225,-0.225 0,0 0,0 -0.225,0 0,-0.45 -0.225,-0.9 -0.225,-1.35 l -0.9,-6.525 c -0.675,-4.05 -1.8,-4.725 -5.175,-4.725 h -5.4 c -0.225,0 -0.45,0.225 -0.45,0.45 v 11.925 c 0,0.225 0,0.45 -0.225,0.45 z" style="fill:#007769;fill-opacity:1;fill-rule:evenodd;stroke:none;stroke-width:0.22500001;stroke-linecap:butt;stroke-linejoin:bevel" inkscape:connector-curvature="0"/>
        <path id="path401" d="m -150.13614,142.37157 c -0.225,0 -0.45,-0.225 -0.45,-0.45 v -2.7 c 0,0 0.225,-0.225 0.45,-0.225 h 14.4 c 0.225,0 0.45,0.225 0.45,0.225 v 2.7 c 0,0.225 -0.225,0.45 -0.45,0.45 z" style="fill:#007769;fill-opacity:1;fill-rule:evenodd;stroke:none;stroke-width:0.22500001;stroke-linecap:butt;stroke-linejoin:bevel" inkscape:connector-curvature="0"/>
        <path id="path403" d="m -7.0361358,150.92157 c 0,0.225 0.225,0.45 0.45,0.45 h 5.84999995 c 4.50000005,0 8.10000005,-2.7 8.10000005,-11.25 0,-7.425 -3.375,-10.35 -8.775,-10.35 h -5.175 c -0.225,0 -0.45,0.225 -0.45,0.45 z" style="fill:#ffffff;fill-opacity:1;fill-rule:evenodd;stroke:none;stroke-width:0.22500001;stroke-linecap:butt;stroke-linejoin:bevel" inkscape:connector-curvature="0"/>
        <path id="path405" d="m -263.53614,138.32157 c 0,0.225 0.225,0.225 0.45,0.225 h 7.65 c 1.125,0 1.8,-0.225 2.25,-0.675 0.45,-0.45 1.575,-1.35 1.575,-3.6 0,-0.9 -0.45,-1.8 -0.675,-2.475 -0.675,-1.125 -1.575,-1.8 -3.825,-1.8 h -6.975 c -0.225,0 -0.45,0 -0.45,0.225 z" style="fill:#ffffff;fill-opacity:1;fill-rule:evenodd;stroke:none;stroke-width:0.22500001;stroke-linecap:butt;stroke-linejoin:bevel" inkscape:connector-curvature="0"/>
        <path id="path407" d="m -34.261136,143.27157 c 0,0.225 0.225,0.45 0.45,0.45 h 8.775 c 0.225,0 0.45,-0.225 0.225,-0.45 l -4.05,-11.25 c -0.225,-0.225 -0.45,-0.45 -0.675,0 z" style="fill:#ffffff;fill-opacity:1;fill-rule:evenodd;stroke:none;stroke-width:0.22500001;stroke-linecap:butt;stroke-linejoin:bevel" inkscape:connector-curvature="0"/>
        <path id="path409" d="m 23.113864,143.27157 c -0.225,0.225 0,0.45 0.225,0.45 h 8.775 c 0.225,0 0.45,-0.225 0.225,-0.45 l -4.05,-11.25 c 0,-0.225 -0.45,-0.45 -0.675,0 z" style="fill:#ffffff;fill-opacity:1;fill-rule:evenodd;stroke:none;stroke-width:0.22500001;stroke-linecap:butt;stroke-linejoin:bevel" inkscape:connector-curvature="0"/>
        <path id="path411" d="m -232.71114,143.27157 c 0,0.225 0.225,0.45 0.45,0.45 h 8.775 c 0.225,0 0.45,-0.225 0.225,-0.45 l -4.05,-11.25 c 0,-0.225 -0.45,-0.45 -0.675,0 z" style="fill:#ffffff;fill-opacity:1;fill-rule:evenodd;stroke:none;stroke-width:0.22500001;stroke-linecap:butt;stroke-linejoin:bevel" inkscape:connector-curvature="0"/>
        <path id="path413" d="m -93.436136,143.27157 c 0,0.225 0,0.45 0.225,0.45 h 8.775 c 0.45,0 0.45,-0.225 0.45,-0.45 l -4.05,-11.25 c -0.225,-0.225 -0.675,-0.45 -0.675,0 z" style="fill:#ffffff;fill-opacity:1;fill-rule:evenodd;stroke:none;stroke-width:0.22500001;stroke-linecap:butt;stroke-linejoin:bevel" inkscape:connector-curvature="0"/>
      </g>
      <path inkscape:connector-curvature="0" style="fill:#fffeff;fill-rule:evenodd;stroke:none;stroke-width:0.13840745;stroke-linecap:butt;stroke-linejoin:bevel" d="m 408.76634,577.88097 -0.83044,1.38408 c -0.13842,0.13841 -0.13842,0.13841 -0.13842,0.13841 l -0.27681,0.41522 c -0.1384,0.13841 0,0.41521 0.13841,0.41521 l 3.18337,0.83045 c 0,0 0,0 0,0 l 3.04496,1.10726 c 0.13842,0.13841 0.41523,0 0.41523,-0.27682 l 0.27682,-3.73699 c 0,0 0,0 0,0 l 0.1384,-2.35293 c 0,0 0,-0.13841 0,-0.13841 -0.41522,-3.59859 -1.38408,-6.92037 -2.21452,-10.51896 0,0 0,0 0,0 -0.55363,-4.01382 -0.41522,-5.25948 1.52249,-8.44286 0.69203,-1.38408 4.70585,-3.18337 6.78196,-0.83045 2.21452,2.49134 2.90655,4.70586 6.08993,6.22835 0,0 0,0 0,0 2.21452,0.69203 4.42904,0.69203 6.64355,1.38407 0,0 0.13841,0 0.13841,0 2.35292,1.10726 3.737,2.49134 5.5363,4.29063 0.1384,0.1384 0.41522,0.1384 0.55363,0 l 1.10726,-1.10726 c 2.07611,-2.07611 3.737,-2.62974 6.50515,-3.04497 0,0 0.1384,0 0.1384,0 4.29064,0 8.58127,-0.41521 12.45668,-2.49133 0,0 0,0 0.1384,0 3.18338,-2.35292 5.3979,-5.39789 8.85808,-7.33559 0,0 0.1384,0 0.1384,-0.13841 3.18338,-0.69204 6.22834,-1.10726 9.27331,-2.35293 0.27681,-0.1384 0.27681,-0.55363 0,-0.55363 -0.69204,-0.1384 -1.24567,-0.41522 -2.07612,-1.10726 0,0 0,0 0,0 -1.52248,-1.9377 -2.76815,-3.46018 -4.56744,-4.98267 0,-0.1384 0,-0.1384 0,-0.1384 -2.49134,-1.38408 -4.98267,-1.66089 -7.75082,-2.21452 0,0 0,0 0,0 -2.35292,-0.96885 -3.04497,-3.04497 -1.38408,-5.12107 0,0 0,0 0,-0.13842 3.5986,-2.90655 8.44286,-3.32178 12.59508,-5.25948 0,0 0,0 0.13841,0 2.49134,-1.79929 4.70586,-4.15222 7.19718,-5.95152 0,0 0,0 0,0 l 2.07612,-0.96885 c 3.46018,-1.52248 5.6747,-3.18337 8.02764,-5.95151 0,0 0,0 0,0 2.62973,-3.5986 3.59858,-6.64356 4.01381,-10.9342 0,-0.27682 -0.41523,-0.41522 -0.55363,-0.27682 -2.35293,2.07612 -5.12107,2.35294 -7.61241,0.13842 0,0 0,-0.13842 0,-0.13842 -1.9377,-3.04495 -1.24567,-6.22833 0.55363,-9.13488 0,0 0,0 0,0 1.79929,-2.62975 2.76815,-4.84426 3.18337,-7.88922 0,0 0,0 0,0 0.41523,-6.08993 -0.96885,-13.42553 5.39789,-16.47049 0.27681,-0.13841 0.27681,-0.55363 0,-0.69204 l -1.93771,-0.96885 c 0,0 -0.1384,0 -0.1384,0 l -2.76815,-0.83045 c 0,0 0,0 0,0 -4.42904,-0.83044 -7.19719,-0.27681 -11.211,1.38408 0,0 0,0 0,0.1384 -3.5986,1.93771 -10.51897,7.19719 -15.08642,4.56745 0,0 0,-0.13841 0,-0.13841 -2.62973,-2.62974 -1.10726,-5.6747 1.93771,-6.92037 0.27681,0 0.27681,-0.41522 0,-0.55362 -5.81312,-2.62975 -9.55011,0.55362 -14.8096,3.59858 0,0 0,0 -0.1384,0 -2.07612,0.55363 -3.04497,0.41523 -4.70586,-0.96885 -0.13841,0 -0.13841,0 -0.13841,0 -2.21452,-2.76815 -0.83044,-4.70585 0.55363,-7.6124 0,0 0,-0.13842 0,-0.13842 0.96886,-4.15222 0.69204,-6.92037 -1.10726,-10.65737 -3.18337,-5.95152 -5.8131,-9.82693 -3.04496,-16.33207 0,0 0,0 0,0 0.55363,-0.96886 1.10726,-1.38408 1.9377,-1.93771 0.27682,-0.13841 0.27682,-0.55363 0,-0.55363 l -0.69203,-0.13841 c 0,0 -0.13841,0 -0.13841,0 -3.04496,0 -4.42903,0.69204 -7.19718,2.07612 0,0 0,0 0,0 -3.18338,2.21452 -5.67472,4.56744 -9.55012,2.76815 -0.13841,-0.13842 -0.13841,-0.13842 -0.13841,-0.13842 -2.62974,-2.35292 -3.87541,-5.81311 -4.84426,-9.13488 0,0 0,0 0,-0.13841 -1.24567,-4.98267 -2.62974,-8.71967 -6.78196,-12.04145 0,0 0,0 0,0 -2.07612,-1.24566 -3.32178,-2.07611 -4.84427,-3.737 -0.1384,-0.27681 -0.41521,-0.27681 -0.41521,0 -1.52249,1.66089 -2.76815,2.49134 -4.84427,3.737 0,0 0,0 0,0 -4.98266,4.01381 -5.81311,8.44285 -7.474,14.39437 0,0 0,0 0,0 -0.96885,2.49133 -2.21452,5.12108 -4.15222,6.92037 0,0 -0.13841,0 -0.13841,0.13842 -2.35293,1.10726 -3.59859,0.69203 -6.08992,-0.27682 0,0 0,-0.13841 0,-0.13841 -2.35294,-1.66089 -4.70586,-3.18337 -7.47401,-4.15223 0,0 0,0 0,0 -1.52248,-0.27681 -2.62974,-0.27681 -4.01381,-0.1384 -0.27682,0 -0.41523,0.41522 -0.13841,0.55363 l 0.83044,0.55363 c 0,0 0,0 0,0 2.62975,1.93771 2.62975,5.95152 2.21452,8.85807 0,0 0,0 0,0.13841 -0.96885,3.04497 -2.49133,5.81312 -4.01381,8.71967 -2.49134,4.98267 -2.07612,8.44285 0.1384,13.56394 0.69204,1.52247 0.55363,2.49132 -0.1384,4.01381 0,0 0,0 0,0.1384 -3.46019,4.29064 -7.05879,0.69204 -10.93419,-1.52248 0,0 0,0 0,0 -3.46019,-1.66089 -6.08993,-1.9377 -9.41171,-0.41521 -0.27681,0.1384 -0.27681,0.55362 0,0.55362 2.21452,0.96885 3.46018,2.62974 3.04497,5.12108 0,0 0,0.1384 0,0.1384 -1.66089,4.01382 -6.22834,2.35293 -9.2733,0.96886 0,0 0,0 -0.13841,0 l -6.78197,-3.73701 c 0,-0.1384 0,-0.1384 0,-0.1384 -2.35292,-0.83045 -4.15222,-1.52249 -6.64356,-1.7993 0,0 0,0 0,0 -3.73699,0 -6.22833,0.69204 -9.4117,2.35293 -0.27681,0 -0.27681,0.41522 0,0.55363 6.36674,3.04496 4.84426,10.38056 5.25949,16.47049 0,0 0,0 0,0 0.55363,3.04496 1.38406,5.25947 3.18337,7.88922 0.1384,0 0.1384,0 0.1384,0 1.7993,2.90655 2.49133,5.95152 0.55363,9.13488 0,0 0,0.13842 -0.1384,0.13842 -2.49134,2.21452 -5.12108,1.9377 -7.47401,-0.13842 -0.27681,-0.1384 -0.55363,0 -0.55363,0.27682 0.13841,2.35293 0.55363,4.29064 1.38408,6.50516 0,0.1384 0,0.1384 0,0.1384 2.07611,4.29064 4.29062,6.64356 8.30445,9.13489 0,0 0,0 0,0 2.21452,1.10726 4.29062,2.07611 6.36674,3.46019 0,0 0,0 0,0 2.49133,2.35293 4.29063,4.15222 7.474,5.5363 0,0 0,0 0,0 3.59859,1.10726 8.58126,2.0761 11.0726,5.12107 0,0 0,0 0,0 1.24566,4.70585 -3.18338,4.70585 -6.78197,5.3979 0,0 0,0 0,0 -2.62974,0.83043 -4.01382,2.0761 -5.81311,4.15221 -1.38408,1.7993 -1.93771,2.90656 -3.73701,3.32178 -0.2768,0 -0.41522,0.41523 0,0.55363 3.04497,1.24567 6.08993,1.66089 9.27331,2.35293 0,0.13841 0,0.13841 0.1384,0.13841 2.35292,1.24567 4.01381,2.90655 5.95152,4.98267 2.76815,2.62973 4.70585,3.59859 8.58126,4.29062 l 2.49134,0.41523 c 0,0 0,0 0.1384,0 3.87541,0.27682 8.58127,-0.13841 11.0726,3.46018 0.1384,0.13842 0.41522,0.13842 0.55363,0 2.62974,-3.59859 6.92038,-4.29062 11.211,-5.12107 0,0 0,0 0,0 3.32178,-1.38407 5.12108,-3.46019 7.05878,-6.36674 1.24567,-1.66089 2.62975,-2.35293 4.42904,-1.93771 0,0 0,0 0,0 3.46018,1.38408 2.07611,3.5986 1.38408,6.36675 0,0 0,0 0,0.1384 -0.41523,2.49133 -0.27682,4.42904 0,6.92037 0,0 0,0 0,0 0.69203,4.29063 1.38407,6.78197 -0.27682,10.93419 0,0 0,0 0,0 z" id="path4087"/>
      <path inkscape:connector-curvature="0" style="fill:#007769;fill-opacity:1;fill-rule:evenodd;stroke:none;stroke-width:0.13840745;stroke-linecap:butt;stroke-linejoin:bevel" d="m 421.22301,539.12689 c 0,0.41522 -0.27682,0.69203 -0.55363,0.69203 h -13.97916 c -0.41521,0 -0.69203,-0.27681 -0.69203,-0.69203 v -60.06883 c 0,-0.27682 -0.27681,-0.69204 -0.69203,-0.69204 h -10.38057 c -0.41522,0 -0.69203,-0.27681 -0.69203,-0.55363 v -10.24215 c 0,-0.27682 0.27681,-0.55363 0.69203,-0.69203 8.58127,-0.96886 10.79579,-3.4602 13.56394,-8.58127 0.1384,-0.13841 0.27681,-0.27681 0.55363,-0.27681 h 11.62622 c 0.27681,0 0.55363,0.27681 0.55363,0.55363 z" id="path4089"/>
    </g>
  </g>
</svg>